<svg xmlns="http://www.w3.org/2000/svg" viewBox="0 0 200 215" id="icon"><g fill="currentColor"><path d="M100.314 63.113c2.569-1.58 16.424-8.941 38.776.286 22.991 9.489 37.256 1.248 39.026.126-5.559-9.137-12.168-17.089-19.479-22.436.487-.133.985-.268 1.512-.424 9.692-2.803 12.153-11.009 12.673-18.037.585-7.971.99-8.094 2.723-15.266 1.661-6.888-.191-8.266-1.9-6.875-.921.749-8.933 2.6-13.685 6.306-7.672 5.987-12.401 17.369-14.546 23.663-.04.097-.329.971-.426 1.275-.998 2.409-2.988 2.402-2.988 2.402v.001a26.852 26.852 0 0 0-2.909-.161c-.87 0-1.736.047-2.601.13-.019.003-.029 0-.051.001-2.543.375-3.942-2.731-4.235-3.471-2.972-8.536-10.967-25.365-28.938-29.894 0 0-3.265-2.5-2.269 1.729.946 4.041 2.903 8.125 2.468 14.065-.197 2.742-1.899 16.803 11.023 24.121a75.04 75.04 0 0 0 3.3 1.771c-6.505 5.21-12.416 12.459-17.474 20.688zM185.157 191.702c-15.835-9.812-21.164-13.262-20.831-17.015 0 0 .003-.61.159-1.541.384-1.99 1.601-5.388 5.481-7.324.128-.063.235-.135.335-.207 12.338-7.161 21.353-18.689 24.532-33.082-3.202 7.95-26.929 14.128-55.747 14.128-28.809 0-52.54-6.178-55.741-14.128a50.256 50.256 0 0 0 3 9.238c1.071 6.027 2.512 20.217-4.302 32.637-6.004 10.941-35.642 25.859-79.626 17.294 0 0-1.764-1.23-2.297-.217-.79 1.499 2.44 2.709 5.766 3.586 30.624 8.109 76.845 4.811 91.36-7.148 6.623-5.452 9.177-12.797 9.828-20.702l.005.013s.178-2.07 2.767-.516c.741.447 3.418 2.189 3.847 4.16.373 2.805.397 6.248-1.051 8.66-2.07 3.448-2.093 3.944.633 5.892 1.673 1.194 8.508 6.219 18.019 11.931.024.018.036.032.062.046 2.012 1.21 4.807 4.18 4.807 4.18 4.282 4.954 13.601 14.922 17.655 13.046 1.916-.887-.081-4.881-.081-4.881s3.186 4.138 4.896 2.729c1.301-1.077-.761-5.196-.761-5.196s2.78 2.412 4.436 1.521c2.024-1.094-.3-7.426-16.218-17.103-15.924-9.682-20.239-11.167-20.62-15.488 0 0-.007-.217.007-.589.125-.953.667-2.972 2.98-2.756 3.445.558 6.997.855 10.635.855 4.163 0 8.216-.382 12.126-1.111l.001.006.264-.052c.457-.058 1.348-.027 1.352 1.08-.145 1.404-.533 2.817-1.359 4.054-2.329 3.488-1.563 3.967.868 6.209 1.501 1.383 8.385 7.438 17.814 13.296.018.015.026.028.05.039 2.011 1.209 5.486 4.533 5.486 4.533v-.004c3.908 3.97 11.094 10.613 15.01 10.214 2.647-.271.491-4.831.491-4.831s3.345 3.229 4.985 2.278c1.838-1.059-.761-4.432-.761-4.432s2.153 1.14 3.673.761c1.52-.382 1.901-4.256-13.935-14.063z"/><path d="M167.466 80.835c-1.9 0-3.479.572-4.687 1.701-1.222 1.143-1.841 2.463-1.841 3.923v25.835c0 3.468-.613 6.021-1.824 7.596-1.171 1.523-3.044 2.264-5.723 2.264-2.739 0-4.606-.734-5.709-2.246-1.152-1.576-1.736-4.137-1.736-7.613V86.357c0-1.767-.805-3.211-2.329-4.177-2.074-1.306-4.136-1.779-6.645-.945-.766.256-1.486.589-2.144.99-.7.426-1.291.961-1.759 1.585-.519.694-.782 1.45-.782 2.246v26.238c0 3.473-.583 6.034-1.735 7.611-1.107 1.514-2.975 2.248-5.71 2.248-2.743 0-4.63-.738-5.768-2.255-1.182-1.576-1.78-4.136-1.78-7.604V86.459c0-1.46-.619-2.78-1.843-3.923-1.21-1.129-2.819-1.701-4.784-1.701-2.025 0-3.695.566-4.965 1.681-1.305 1.143-1.965 2.47-1.965 3.943v25.434c0 3.199.312 6.225.926 8.991.631 2.828 1.731 5.311 3.274 7.379 1.557 2.09 3.671 3.739 6.284 4.908 2.586 1.152 5.82 1.735 9.614 1.735 3.953 0 7.265-.732 9.84-2.177a17.184 17.184 0 0 0 5.424-4.749 16.496 16.496 0 0 0 5.302 4.747c2.542 1.446 5.904 2.179 9.994 2.179 3.794 0 7.014-.585 9.57-1.738 2.575-1.168 4.67-2.817 6.23-4.905 1.544-2.076 2.645-4.559 3.272-7.379.613-2.767.926-5.792.926-8.991V86.459c0-1.466-.642-2.789-1.904-3.934-1.237-1.122-2.928-1.69-5.023-1.69z"/></g></svg>
